# xmcd
#
# Track frame offsets:
#	150
#	15829
#	39723
#	61098
#	77649
#	92994
#	109756
#	121241
#	137227
#	152227
#	169791
#	187483
#	204920
#	222058
#	239384
#	261091
#	283594
#	303356
#
# Disc length: 4280 seconds
#
# Revision: 1
# Processed by: cddbd v1.5.1PL0 Copyright (c) Steve Scherf et al.
# Submitted via: audiograbber 1.83.01
#
DISCID=f910b612
DTITLE=Varius Artist - BLACK VELVET CD 3
DYEAR=2005
DGENRE=
TTITLE0=Alicia Keys-Fallin
TTITLE1=R.Kelly-I Believe i can fly
TTITLE2=Billy Paul-Me&Mrs Jones
TTITLE3=Patti Austin-Baby,Come To Me(Duet with James Ingram)
TTITLE4=Harold Melvin and The Blue Notes-If You Don't Know Me By Now
TTITLE5=The Moments-Love On A Two
TTITLE6=The Three Degrres-When Will I See You Again
TTITLE7=Mellanie Williams and Joe Roberts-You Are Everything
TTITLE8=The Delfonics-Didn't I(Blow Your Mind This Time)
TTITLE9=Bill Withers-Lean On Me
TTITLE10=Portrait-How Deep Is Your Love
TTITLE11=Des'Ree-feel So High
TTITLE12=Terence Trend Darby-Delicate
TTITLE13=Sly and The Family Stone-Family Affair
TTITLE14=Billy Ocean-There'll Be Sad Songs(To Make You Cry)
TTITLE15=Nina Simone-Mr Bojangles
TTITLE16=Earth Wind and Fire-After The Love Has Gone
TTITLE17=Rose Royce-Wishing On A Star
EXTD=
EXTT0=
EXTT1=
EXTT2=
EXTT3=
EXTT4=
EXTT5=
EXTT6=
EXTT7=
EXTT8=
EXTT9=
EXTT10=
EXTT11=
EXTT12=
EXTT13=
EXTT14=
EXTT15=
EXTT16=
EXTT17=
PLAYORDER=
